#format: frame checksums
#version: 2
#hash: MD5
#tb 0: 1/30
#media_type 0: video
#codec_id 0: rawvideo
#dimensions 0: 640x360
#sar 0: 0/1
#tb 1: 1/44100
#media_type 1: audio
#codec_id 1: pcm_s16le
#sample_rate 1: 44100
#channel_layout 1: 3
#channel_layout_name 1: stereo
#stream#, dts,        pts, duration,     size, hash
0,          0,          0,        1,   691200, 848038546e8e05c53f4e1fde95961fab
1,          0,          0,    22050,    88200, e9ded829730eccd2d0273d7cc06be58c
0,          1,          1,        1,   691200, f0731cc0e24a35744956ce0e4f18e5bd
0,          2,          2,        1,   691200, 9385e10de12febaf5a3335a8f8467b9d
0,          3,          3,        1,   691200, 263833371e1d25f2709cfd7c5ea32bb8
0,          4,          4,        1,   691200, c00073f23a91d9e55f13273a954973c6
0,          5,          5,        1,   691200, f881adbe28300b8ff334f57d07783e0d
0,          6,          6,        1,   691200, 58c1b45df1aa3855a94f69a0362b1ed3
0,          7,          7,        1,   691200, 53d071161c8107a1a0551dcd5dbfbc57
0,          8,          8,        1,   691200, 7fd07e5255e73321cfa1f07ee4e8c85e
0,          9,          9,        1,   691200, 09e10a66b3de39835bbc866fdc87e8c0
0,         10,         10,        1,   691200, d7a0760d7e9f0c27409610ac214c842c
0,         11,         11,        1,   691200, 8859097cb17db4ef6ea1acef52e8beff
0,         12,         12,        1,   691200, 1ba137c88ed1dc0d2f07f3e072bfe1b5
0,         13,         13,        1,   691200, 29bdac75244a0c7aa04688abaea6fe1b
0,         14,         14,        1,   691200, 9ec9180eba7cb2c472575b570020682d
0,         15,         15,        1,   691200, 306b5a030cccb27fd2bf89d0b29c81bf
1,      22050,      22050,    22050,    88200, e9ded829730eccd2d0273d7cc06be58c
0,         16,         16,        1,   691200, 380a2851069a59b6fa8565e1dbb17ada
0,         17,         17,        1,   691200, 3e06a915659630dff5ab17b2b193aab6
0,         18,         18,        1,   691200, 00a7718e6e2befd9f33b168b2ba7416f
0,         19,         19,        1,   691200, 3eb349fb1fb60650f65de6cb329cfa89
0,         20,         20,        1,   691200, 6b4537fd0e51df08ca1aca5c3c84e5fd
0,         21,         21,        1,   691200, b6ea7bd29a525b609e0befc2fcf74a65
0,         22,         22,        1,   691200, aedb0b757e58d75d05c8ea9657bc3768
0,         23,         23,        1,   691200, 364bcb1cc37b5097d769440cbae9ef83
0,         24,         24,        1,   691200, 844f73dcd5a1b1824759fef5aa2cb305
0,         25,         25,        1,   691200, 1d4e767d66d015de29eab480436e4e29
0,         26,         26,        1,   691200, b01d0f979b9486db24a42677a100cd4f
0,         27,         27,        1,   691200, 71382dc3837a7c4185a3af477490f14e
0,         28,         28,        1,   691200, 6eebc3f95b28b904ba7695816a33a96e
0,         29,         29,        1,   691200, 673d17dae2d324f12b17e9be080f8e4a
0,         30,         30,        1,   691200, 673d17dae2d324f12b17e9be080f8e4a
1,      44100,      44100,     1439,     5756, 98c090ca359c69698e7630751dda9fb7
